<?xml version="1.0" encoding="UTF-8"?>
<!DOCTYPE svg PUBLIC "-//W3C//DTD SVG 1.1//EN" "http://www.w3.org/Graphics/SVG/1.1/DTD/svg11.dtd">
<svg xmlns="http://www.w3.org/2000/svg" version="1.1" width="512px" height="512px" style="shape-rendering:geometricPrecision; text-rendering:geometricPrecision; image-rendering:optimizeQuality; fill-rule:evenodd; clip-rule:evenodd" xmlns:xlink="http://www.w3.org/1999/xlink">
<g><path style="opacity:1" fill="#fcb400" d="M 159.5,30.5 C 175.654,28.4866 182.487,35.4866 180,51.5C 164.166,68.4991 164.833,84.8325 182,100.5C 198.76,127.364 196.926,152.864 176.5,177C 168.875,181.794 161.375,181.628 154,176.5C 150.646,171.334 149.646,165.668 151,159.5C 166.834,142.501 166.167,126.168 149,110.5C 132.64,84.539 133.974,59.539 153,35.5C 155.326,33.9343 157.492,32.2676 159.5,30.5 Z"/></g>
<g><path style="opacity:1" fill="#fcb400" d="M 249.5,30.5 C 265.654,28.4866 272.487,35.4866 270,51.5C 254.166,68.4991 254.833,84.8325 272,100.5C 288.76,127.364 286.926,152.864 266.5,177C 258.875,181.794 251.375,181.628 244,176.5C 240.646,171.334 239.646,165.668 241,159.5C 256.834,142.501 256.167,126.168 239,110.5C 222.64,84.539 223.974,59.539 243,35.5C 245.326,33.9343 247.492,32.2676 249.5,30.5 Z"/></g>
<g><path style="opacity:1" fill="#fcb400" d="M 339.5,30.5 C 355.654,28.4866 362.487,35.4866 360,51.5C 344.166,68.4991 344.833,84.8325 362,100.5C 378.76,127.364 376.926,152.864 356.5,177C 348.875,181.794 341.375,181.628 334,176.5C 330.646,171.334 329.646,165.668 331,159.5C 346.834,142.501 346.167,126.168 329,110.5C 312.64,84.539 313.974,59.539 333,35.5C 335.326,33.9343 337.492,32.2676 339.5,30.5 Z"/></g>
<g><path style="opacity:1" fill="#fcb400" d="M 511.5,249.5 C 511.5,258.167 511.5,266.833 511.5,275.5C 500.839,350.484 461.172,403.817 392.5,435.5C 391.667,447.486 391.167,459.486 391,471.5C 389.5,475.667 386.667,478.5 382.5,480C 297.833,480.667 213.167,480.667 128.5,480C 124.333,478.5 121.5,475.667 120,471.5C 119.833,459.486 119.333,447.486 118.5,435.5C 49.828,403.817 10.1614,350.484 -0.5,275.5C -0.5,266.833 -0.5,258.167 -0.5,249.5C 1.31481,245.521 4.31481,242.688 8.5,241C 173.167,240.333 337.833,240.333 502.5,241C 506.685,242.688 509.685,245.521 511.5,249.5 Z M 30.5,270.5 C 180.501,270.167 330.501,270.5 480.5,271.5C 479.359,281.013 477.359,290.346 474.5,299.5C 328.5,300.833 182.5,300.833 36.5,299.5C 33.5323,290.026 31.5323,280.359 30.5,270.5 Z M 48.5,331.5 C 186.333,330.334 324.333,330.167 462.5,331C 441.316,370.176 409.649,397.176 367.5,412C 364.894,413.938 363.061,416.438 362,419.5C 361.5,429.828 361.334,440.161 361.5,450.5C 290.833,450.5 220.167,450.5 149.5,450.5C 149.666,440.161 149.5,429.828 149,419.5C 147.939,416.438 146.106,413.938 143.5,412C 101.495,397.147 69.8288,370.313 48.5,331.5 Z"/></g>
</svg>
